<?xml version="1.0" encoding="UTF-8" standalone="no"?>
<svg width="50px" height="51px" viewBox="0 0 50 51" version="1.1" xmlns="http://www.w3.org/2000/svg" xmlns:xlink="http://www.w3.org/1999/xlink" xmlns:sketch="http://www.bohemiancoding.com/sketch/ns">
    <!-- Generator: Sketch 3.3.3 (12072) - http://www.bohemiancoding.com/sketch -->
    <title>Untitled</title>
    <desc>Created with Sketch.</desc>
    <defs></defs>
    <g id="Page-1" stroke="none" stroke-width="1" fill="none" fill-rule="evenodd" sketch:type="MSPage">
        <g id="Group" sketch:type="MSLayerGroup" transform="translate(6.000000, 7.594521)">
            <path d="M7.71390353,13.318929 L5.26586454,12.1429102" id="XMLID_84_" fill="#000000" sketch:type="MSShapeGroup"></path>
            <path d="M7.71390353,13.318929 C7.71390353,13.318929 7.68990314,13.318929 7.66590276,13.3429293 C7.64190238,13.3669297 7.59390161,13.3909301 7.52190047,13.4389309 C7.4738997,13.4629312 7.40189856,13.510932 7.32989741,13.5589328 C7.28189665,13.5829332 7.25789626,13.6069335 7.2098955,13.6309339 C7.18589512,13.6549343 7.18589512,13.6309339 7.16189474,13.6069335 C7.16189474,13.5829332 7.13789435,13.5829332 7.11389397,13.5829332 C6.87389015,13.4629312 6.58588556,13.318929 6.27388059,13.1749267 C5.96187563,13.0309244 5.64987066,12.8869221 5.43386722,12.7669202 C5.40986684,12.7669202 5.40986684,12.7429198 5.38586645,12.7429198 C5.36186607,12.7429198 5.36186607,12.7429198 5.36186607,12.7189194 C5.36186607,12.6709186 5.33786569,12.6229179 5.33786569,12.5989175 C5.31386531,12.5269163 5.31386531,12.4309148 5.28986492,12.382914 C5.28986492,12.3109129 5.26586454,12.2629121 5.26586454,12.2149114 L5.26586454,12.1669106 C5.26586454,12.1669106 5.28986492,12.1669106 5.31386531,12.1429102 C5.33786569,12.1189098 5.38586645,12.0949095 5.4578676,12.0709091 C5.50586836,12.0469087 5.57786951,11.9989079 5.64987066,11.9509072 C5.69787142,11.9269068 5.7218718,11.9029064 5.76987257,11.878906 C5.79387295,11.8549056 5.81787333,11.878906 5.81787333,11.878906 C5.81787333,11.9029064 5.84187371,11.9029064 5.8658741,11.9029064 C6.10587792,12.0229083 6.39388251,12.1669106 6.70588747,12.3109129 C7.01789244,12.4549152 7.32989741,12.5989175 7.54590085,12.7189194 C7.56990123,12.7189194 7.56990123,12.7429198 7.59390161,12.7429198 C7.617902,12.7429198 7.617902,12.7429198 7.64190238,12.7669202 C7.64190238,12.8149209 7.66590276,12.8629217 7.66590276,12.8869221 C7.68990314,12.9589232 7.68990314,13.0549247 7.71390353,13.1029255 C7.71390353,13.1749267 7.73790391,13.2229274 7.73790391,13.2709282 C7.71390353,13.2949286 7.71390353,13.318929 7.71390353,13.318929 L7.71390353,13.318929 Z" id="XMLID_83_" fill="#FFFFFF" sketch:type="MSShapeGroup"></path>
            <path id="XMLID_87_" fill="#000000" sketch:type="MSShapeGroup" d="M3.32183359,18.5510123 L0.0577816075,18.5510123"></path>
            <path d="M3.32183359,18.5510123 C3.32183359,18.5510123 3.2978332,18.5750127 3.27383282,18.599013 C3.24983244,18.6230134 3.22583206,18.6950146 3.17783129,18.7430153 C3.12983053,18.7910161 3.08182976,18.8630172 3.00982862,18.9350184 C2.98582823,18.9590188 2.93782747,19.0070195 2.91382709,19.0310199 C2.88982671,19.0550203 2.88982671,19.0550203 2.86582632,19.0310199 L2.81782556,19.0310199 L1.6898076,19.0310199 L0.561789633,19.0310199 L0.513788869,19.0310199 C0.489788487,19.0310199 0.465788105,19.0310199 0.465788105,19.0070195 C0.441787723,18.9590188 0.393786958,18.9350184 0.369786576,18.911018 C0.297785429,18.8390169 0.249784665,18.7910161 0.201783901,18.7190149 C0.153783136,18.6710142 0.129782754,18.6230134 0.105782372,18.5750127 C0.0817819897,18.5510123 0.0577816075,18.5270119 0.0577816075,18.5270119 C0.0577816075,18.5270119 0.0817819897,18.5030115 0.105782372,18.4790111 C0.129782754,18.4550107 0.153783136,18.40701 0.201783901,18.3350088 C0.249784665,18.2870081 0.297785429,18.2150069 0.369786576,18.1430058 C0.393786958,18.1190054 0.441787723,18.0710046 0.465788105,18.0470042 C0.489788487,18.0230039 0.489788487,18.0230039 0.513788869,18.0230039 L0.561789633,18.0230039 L1.6898076,18.0230039 L2.81782556,18.0230039 L2.86582632,18.0230039 C2.88982671,18.0230039 2.91382709,17.9990035 2.91382709,18.0230039 C2.93782747,18.0710046 2.98582823,18.095005 3.00982862,18.1190054 C3.08182976,18.1910065 3.12983053,18.2390073 3.17783129,18.3110084 C3.22583206,18.3590092 3.24983244,18.40701 3.27383282,18.4550107 L3.32183359,18.5510123 L3.32183359,18.5510123 Z" id="XMLID_86_" fill="#FFFFFF" sketch:type="MSShapeGroup"></path>
            <path d="M25.3781848,28.5111709 L26.7462066,30.8632083" id="XMLID_81_" fill="#000000" sketch:type="MSShapeGroup"></path>
            <path d="M24.6152267,29.3221298 L24.7832294,29.3221298 C24.8552305,29.3221298 24.9272316,29.3221298 24.9992328,29.3461302 C25.0472336,29.3461302 25.0952343,29.3461302 25.1432351,29.3701305 C25.1672355,29.3701305 25.1672355,29.3941309 25.1672355,29.3941309 C25.1672355,29.4181313 25.1672355,29.4181313 25.1912358,29.4421317 C25.3112378,29.6581351 25.5032408,29.9701401 25.6712435,30.2581447 C25.8392462,30.5461493 26.0072488,30.8581542 26.1512511,31.0741577 C26.1512511,31.0981581 26.1752515,31.0981581 26.1752515,31.1221584 C26.1992519,31.1221584 26.1992519,31.1461588 26.1752515,31.1701592 C26.1512511,31.21816 26.1512511,31.2661607 26.1272508,31.2901611 C26.1032504,31.3621623 26.0552496,31.4341634 26.0312492,31.5061646 C26.0072488,31.5541653 25.9832485,31.6261665 25.9592481,31.6501669 C25.9352477,31.6741672 25.9352477,31.6981676 25.9352477,31.6981676 L25.8872469,31.6981676 L25.7192443,31.6981676 C25.6472431,31.6981676 25.575242,31.6981676 25.5032408,31.6741672 C25.4552401,31.6741672 25.4072393,31.6741672 25.3592385,31.6501669 C25.3352381,31.6501669 25.3352381,31.6261665 25.3352381,31.6261665 C25.3352381,31.6021661 25.3112378,31.6021661 25.3112378,31.5781657 C25.1912358,31.3621623 24.9992328,31.0501573 24.8312301,30.7621527 C24.6632274,30.4741481 24.4952248,30.1621432 24.3512225,29.9461397 C24.3512225,29.9221393 24.3272221,29.9221393 24.3272221,29.898139 C24.3032217,29.898139 24.3032217,29.8741386 24.3032217,29.8501382 C24.3272221,29.8021374 24.3272221,29.7541367 24.3512225,29.7301363 C24.3752229,29.6581351 24.4232236,29.586134 24.447224,29.5141328 C24.4712244,29.4661321 24.4952248,29.3941309 24.5192251,29.3701305 L24.5672259,29.3221298 L24.6152267,29.3221298 Z" id="XMLID_80_" fill="#FFFFFF" sketch:type="MSShapeGroup"></path>
            <path d="M12.8979861,29.3511843 L11.697967,31.7752229" id="XMLID_78_" fill="#000000" sketch:type="MSShapeGroup"></path>
            <path d="M12.8979861,29.3511843 C12.8979861,29.3511843 12.8979861,29.3751846 12.9219865,29.399185 C12.9459868,29.4231854 12.9699872,29.4711862 12.9939876,29.5431873 C13.017988,29.5911881 13.0659888,29.6631892 13.0899891,29.7351904 C13.1139895,29.7831911 13.1379899,29.8071915 13.1379899,29.8551923 C13.1379899,29.8791927 13.1379899,29.8791927 13.1139895,29.903193 C13.0899891,29.903193 13.0899891,29.9271934 13.0899891,29.9511938 C12.9699872,30.1911976 12.8259849,30.4792022 12.6819826,30.7912072 C12.5379803,31.1032122 12.3699777,31.3912167 12.2739761,31.6312206 C12.2739761,31.6552209 12.2499758,31.6552209 12.2499758,31.6792213 C12.2499758,31.7032217 12.2499758,31.7032217 12.2259754,31.7032217 C12.1779746,31.7032217 12.1299738,31.7272221 12.1059735,31.7272221 C12.0339723,31.7512225 11.9379708,31.7512225 11.88997,31.7752229 C11.8179689,31.7752229 11.7699681,31.7992232 11.7219674,31.7992232 L11.6739666,31.7992232 C11.6739666,31.7992232 11.6739666,31.7752229 11.6499662,31.7512225 C11.6259658,31.7272221 11.6019654,31.6792213 11.5779651,31.6072202 C11.5539647,31.5592194 11.5059639,31.4872183 11.4819635,31.4152171 C11.4579631,31.3672164 11.4339628,31.343216 11.4339628,31.2952152 C11.4099624,31.2712148 11.4339628,31.2472144 11.4339628,31.2472144 C11.4579631,31.2472144 11.4579631,31.2232141 11.4579631,31.1992137 C11.5779651,30.9592099 11.7219674,30.6712053 11.8659696,30.3592003 C12.0099719,30.0471953 12.1779746,29.7591908 12.2739761,29.5191869 C12.2739761,29.4951865 12.2979765,29.4951865 12.2979765,29.4711862 C12.2979765,29.4471858 12.2979765,29.4471858 12.3219769,29.4231854 C12.3699777,29.4231854 12.4179784,29.399185 12.4419788,29.399185 C12.51398,29.3751846 12.6099815,29.3751846 12.6579823,29.3511843 C12.7299834,29.3511843 12.7779842,29.3271839 12.8259849,29.3271839 C12.8739857,29.3511843 12.8979861,29.3511843 12.8979861,29.3511843 L12.8979861,29.3511843 Z" id="XMLID_77_" fill="#FFFFFF" sketch:type="MSShapeGroup"></path>
            <path d="M7.71390353,23.9510983 L5.07386148,25.2471189" id="XMLID_75_" fill="#000000" sketch:type="MSShapeGroup"></path>
            <path d="M7.71390353,23.9510983 L7.71390353,23.999099 C7.71390353,24.0470998 7.71390353,24.0951006 7.68990314,24.1671017 C7.66590276,24.2391028 7.66590276,24.311104 7.64190238,24.4071055 C7.64190238,24.4551063 7.617902,24.5031071 7.617902,24.5511078 C7.617902,24.5751082 7.59390161,24.5751082 7.56990123,24.5751082 C7.54590085,24.5751082 7.54590085,24.5751082 7.52190047,24.5991086 C7.28189665,24.7191105 6.9458913,24.8871132 6.60988595,25.0551158 C6.27388059,25.2231185 5.93787524,25.3911212 5.69787142,25.5111231 C5.67387104,25.5111231 5.67387104,25.5351235 5.64987066,25.5351235 C5.64987066,25.5591239 5.62587028,25.5591239 5.60186989,25.5351235 C5.55386913,25.5111231 5.50586836,25.4871227 5.48186798,25.4871227 C5.40986684,25.4631223 5.33786569,25.4151216 5.26586454,25.3911212 C5.21786378,25.3671208 5.14586263,25.31912 5.12186225,25.31912 C5.09786187,25.2951197 5.07386148,25.2951197 5.07386148,25.2951197 L5.07386148,25.2471189 C5.07386148,25.1991181 5.07386148,25.1511174 5.09786187,25.0791162 C5.12186225,25.0071151 5.12186225,24.9351139 5.14586263,24.8391124 C5.14586263,24.7911116 5.16986301,24.7431109 5.16986301,24.6951101 C5.16986301,24.6711097 5.1938634,24.6711097 5.21786378,24.6711097 C5.24186416,24.6711097 5.24186416,24.6711097 5.26586454,24.6471093 C5.50586836,24.5271074 5.84187371,24.3591048 6.17787907,24.1911021 C6.51388442,24.0230994 6.84988977,23.8550967 7.08989359,23.7350948 C7.11389397,23.7350948 7.11389397,23.7110944 7.13789435,23.7110944 C7.13789435,23.6870941 7.16189474,23.6870941 7.18589512,23.6870941 C7.23389588,23.7110944 7.28189665,23.7350948 7.30589703,23.7350948 C7.37789818,23.7590952 7.44989932,23.807096 7.52190047,23.8310964 C7.56990123,23.8550967 7.64190238,23.9030975 7.66590276,23.9030975 C7.68990314,23.9270979 7.71390353,23.9510983 7.71390353,23.9510983 L7.71390353,23.9510983 Z" id="XMLID_74_" fill="#FFFFFF" sketch:type="MSShapeGroup"></path>
            <path id="XMLID_72_" fill="#000000" sketch:type="MSShapeGroup" d="M33.6823171,18.5270119 L36.9703694,18.5270119"></path>
            <path d="M33.6823171,18.5270119 L33.7303178,18.4790111 C33.7543182,18.4550107 33.7783186,18.3830096 33.8263193,18.3350088 C33.8743201,18.2870081 33.9223209,18.2150069 33.994322,18.1430058 C34.0183224,18.1190054 34.0663232,18.0710046 34.0903236,18.0470042 C34.1143239,18.0230039 34.1143239,18.0230039 34.1383243,18.0470042 L34.1863251,18.0470042 L35.314343,18.0470042 L36.442361,18.0470042 L36.4903618,18.0470042 C36.5143622,18.0470042 36.5383625,18.0470042 36.5383625,18.0710046 C36.5623629,18.1190054 36.6103637,18.1430058 36.6343641,18.1670062 C36.7063652,18.2390073 36.754366,18.2870081 36.8023667,18.3590092 C36.8503675,18.40701 36.8743679,18.4550107 36.8983683,18.5030115 C36.9223686,18.5270119 36.946369,18.5510123 36.946369,18.5510123 C36.946369,18.5510123 36.9223686,18.5750127 36.8983683,18.599013 C36.8743679,18.6230134 36.8503675,18.6710142 36.8023667,18.7430153 C36.754366,18.7910161 36.7063652,18.8630172 36.6343641,18.9350184 C36.6103637,18.9590188 36.5623629,19.0070195 36.5383625,19.0310199 C36.5143622,19.0550203 36.5143622,19.0550203 36.4903618,19.0550203 L36.442361,19.0550203 L35.314343,19.0550203 L34.1863251,19.0550203 L34.1383243,19.0550203 C34.1143239,19.0550203 34.0903236,19.0790207 34.0903236,19.0550203 C34.0663232,19.0070195 34.0183224,18.9830191 33.994322,18.9590188 C33.9223209,18.8870176 33.8743201,18.8390169 33.8263193,18.7670157 C33.7783186,18.7190149 33.7543182,18.6710142 33.7303178,18.6230134 C33.7063174,18.5510123 33.6823171,18.5270119 33.6823171,18.5270119 L33.6823171,18.5270119 Z" id="XMLID_71_" fill="#FFFFFF" sketch:type="MSShapeGroup"></path>
            <path d="M31.9782899,25.1751178 L29.5782517,24.0230994" id="XMLID_69_" fill="#000000" sketch:type="MSShapeGroup"></path>
            <path d="M31.9782899,25.1751178 C31.9782899,25.1751178 31.9542895,25.1751178 31.9302892,25.1991181 C31.9062888,25.2231185 31.858288,25.2471189 31.7862869,25.2951197 C31.7382861,25.31912 31.6662849,25.3671208 31.5942838,25.4151216 C31.546283,25.439122 31.5222827,25.4631223 31.4742819,25.4871227 C31.4502815,25.5111231 31.4502815,25.4871227 31.4262811,25.4871227 C31.4262811,25.4631223 31.4022807,25.4631223 31.3782804,25.4631223 C31.1622769,25.3671208 30.850272,25.2231185 30.5622674,25.0791162 C30.2502624,24.9351139 29.9622578,24.7911116 29.7462544,24.6951101 C29.722254,24.6951101 29.722254,24.6711097 29.6982536,24.6711097 C29.6742532,24.6711097 29.6742532,24.6711097 29.6742532,24.6471093 C29.6742532,24.5991086 29.6502528,24.5511078 29.6502528,24.5271074 C29.6262525,24.4551063 29.6262525,24.3591048 29.6022521,24.311104 C29.6022521,24.2391028 29.5782517,24.1911021 29.5782517,24.1431013 L29.5782517,24.0951006 C29.5782517,24.0951006 29.6022521,24.0951006 29.6262525,24.0711002 C29.6502528,24.0470998 29.6982536,24.0230994 29.7702548,23.999099 C29.8182555,23.9750986 29.8902567,23.9270979 29.9622578,23.8790971 C30.0102586,23.8550967 30.034259,23.8310964 30.0822597,23.807096 C30.1062601,23.7830956 30.1302605,23.807096 30.1302605,23.807096 C30.1302605,23.8310964 30.1542609,23.8310964 30.1782613,23.8310964 C30.3942647,23.9270979 30.7062697,24.0711002 30.9942742,24.2151025 C31.3062792,24.3591048 31.5942838,24.5031071 31.8102872,24.5991086 C31.8342876,24.5991086 31.8342876,24.623109 31.858288,24.623109 C31.8822884,24.623109 31.8822884,24.623109 31.9062888,24.6471093 C31.9062888,24.6951101 31.9302892,24.7431109 31.9302892,24.7671113 C31.9542895,24.8391124 31.9542895,24.9351139 31.9782899,24.9831147 C31.9782899,25.0551158 32.0022903,25.1031166 32.0022903,25.1511174 C31.9782899,25.1511174 31.9782899,25.1751178 31.9782899,25.1751178 L31.9782899,25.1751178 Z" id="XMLID_68_" fill="#FFFFFF" sketch:type="MSShapeGroup"></path>
            <path d="M11.6739666,5.73480818 L13.0899891,8.15884678" id="XMLID_66_" fill="#000000" sketch:type="MSShapeGroup"></path>
            <path d="M11.6739666,5.73480818 L11.7219674,5.73480818 L11.88997,5.73480818 C11.9619712,5.73480818 12.0339723,5.75880856 12.1299738,5.75880856 C12.1779746,5.75880856 12.2259754,5.78280894 12.2739761,5.78280894 C12.2979765,5.78280894 12.2979765,5.80680933 12.2979765,5.80680933 C12.2979765,5.83080971 12.3219769,5.83080971 12.3219769,5.85481009 C12.4419788,6.07081353 12.6339819,6.3828185 12.8019845,6.69482347 C12.9699872,7.00682844 13.1619903,7.29483302 13.2819922,7.53483684 C13.2819922,7.55883723 13.3059926,7.55883723 13.3059926,7.58283761 C13.329993,7.58283761 13.329993,7.60683799 13.329993,7.63083837 C13.3059926,7.67883914 13.3059926,7.7268399 13.2819922,7.75084028 C13.2579918,7.82284143 13.209991,7.89484258 13.1859907,7.96684372 C13.1619903,8.01484449 13.1379899,8.08684563 13.1139895,8.11084602 C13.0899891,8.1348464 13.0899891,8.15884678 13.0899891,8.15884678 L13.0419884,8.15884678 L12.8739857,8.15884678 C12.8019845,8.15884678 12.7299834,8.1348464 12.6339819,8.1348464 C12.5859811,8.1348464 12.5379803,8.11084602 12.4899796,8.11084602 C12.4659792,8.11084602 12.4659792,8.08684563 12.4659792,8.08684563 C12.4659792,8.06284525 12.4419788,8.06284525 12.4419788,8.03884487 C12.3219769,7.82284143 12.1299738,7.51083646 11.9619712,7.19883149 C11.7939685,6.88682653 11.6019654,6.59882194 11.4819635,6.35881812 C11.4819635,6.33481773 11.4579631,6.33481773 11.4579631,6.31081735 C11.4339628,6.31081735 11.4339628,6.28681697 11.4339628,6.26281659 C11.4579631,6.21481582 11.4579631,6.16681506 11.4819635,6.14281468 C11.5059639,6.07081353 11.5539647,5.99881238 11.5779651,5.92681124 C11.6019654,5.87881047 11.6259658,5.80680933 11.6499662,5.78280894 C11.6739666,5.75880856 11.6739666,5.73480818 11.6739666,5.73480818 L11.6739666,5.73480818 Z" id="XMLID_65_" fill="#FFFFFF" sketch:type="MSShapeGroup"></path>
            <path id="XMLID_63_" fill="#000000" sketch:type="MSShapeGroup" d="M18.6154454,3.33476996 L18.6154454,0.0467176016"></path>
            <path d="M18.6154454,3.33476996 C18.6154454,3.33476996 18.591445,3.31076958 18.5674446,3.2867692 C18.5434442,3.26276881 18.4714431,3.23876843 18.4234423,3.19076767 C18.3754416,3.1427669 18.3034404,3.09476614 18.2314393,3.02276499 C18.2074389,2.99876461 18.1594381,2.95076385 18.1354377,2.92676346 C18.1114373,2.90276308 18.1114373,2.90276308 18.1354377,2.8787627 L18.1354377,2.83076194 L18.1354377,1.70274397 L18.1354377,0.57472601 L18.1354377,0.526725245 C18.1354377,0.502724863 18.1354377,0.478724481 18.1594381,0.478724481 C18.2074389,0.454724099 18.2314393,0.406723334 18.2554396,0.382722952 C18.3274408,0.310721806 18.3754416,0.262721041 18.4474427,0.214720277 C18.4954435,0.166719512 18.5434442,0.14271913 18.591445,0.118718748 C18.6154454,0.0947183659 18.6394458,0.0707179837 18.6394458,0.0707179837 C18.6394458,0.0707179837 18.6634461,0.0947183659 18.6874465,0.118718748 C18.7114469,0.14271913 18.7594477,0.166719512 18.8314488,0.214720277 C18.8794496,0.262721041 18.9514507,0.310721806 19.0234519,0.382722952 C19.0474523,0.406723334 19.095453,0.454724099 19.1194534,0.478724481 C19.1434538,0.502724863 19.1434538,0.502724863 19.1434538,0.526725245 L19.1434538,0.57472601 L19.1434538,1.70274397 L19.1434538,2.83076194 L19.1434538,2.8787627 C19.1434538,2.90276308 19.1674542,2.92676346 19.1434538,2.92676346 C19.095453,2.95076385 19.0714526,2.99876461 19.0474523,3.02276499 C18.9754511,3.09476614 18.9274503,3.1427669 18.8554492,3.19076767 C18.8074484,3.23876843 18.7594477,3.26276881 18.7114469,3.2867692 C18.6394458,3.31076958 18.6154454,3.33476996 18.6154454,3.33476996 L18.6154454,3.33476996 Z" id="XMLID_62_" fill="#FFFFFF" sketch:type="MSShapeGroup"></path>
            <path d="M25.6611353,8.51880474 L24.4611162,10.9428433" id="XMLID_60_" fill="#000000" sketch:type="MSShapeGroup"></path>
            <path d="M25.6611353,5.51880474 C25.6611353,5.51880474 25.6611353,5.54280512 25.6851357,5.5668055 C25.7091361,5.59080589 25.7331365,5.63880665 25.7811372,5.7108078 C25.8051376,5.75880856 25.8531384,5.83080971 25.8771388,5.90281086 C25.9011391,5.95081162 25.9251395,5.974812 25.9251395,6.02281277 C25.9491399,6.04681315 25.9251395,6.04681315 25.9011391,6.07081353 C25.8771388,6.07081353 25.8771388,6.09481391 25.8771388,6.1188143 C25.7571368,6.33481773 25.6131345,6.6468227 25.4691323,6.95882767 C25.32513,7.27083264 25.1811277,7.55883723 25.0611258,7.79884105 C25.0611258,7.82284143 25.0371254,7.82284143 25.0371254,7.84684181 C25.0371254,7.8708422 25.0371254,7.8708422 25.013125,7.8708422 C24.9651242,7.8708422 24.9171235,7.89484258 24.8931231,7.89484258 C24.8211219,7.91884296 24.7251204,7.91884296 24.6771196,7.94284334 C24.6051185,7.94284334 24.5571177,7.96684372 24.509117,7.96684372 L24.4611162,7.96684372 C24.4611162,7.96684372 24.4611162,7.94284334 24.4371158,7.91884296 C24.4131154,7.89484258 24.3891151,7.84684181 24.3651147,7.77484067 C24.3411143,7.7268399 24.2931135,7.65483876 24.2691131,7.58283761 C24.2451128,7.53483684 24.2211124,7.51083646 24.2211124,7.4628357 C24.197112,7.43883532 24.2211124,7.41483493 24.2211124,7.41483493 C24.2451128,7.41483493 24.2451128,7.39083455 24.2451128,7.36683417 C24.3651147,7.15083073 24.509117,6.83882576 24.6531193,6.52682079 C24.7971216,6.21481582 24.9411238,5.92681124 25.0611258,5.68680742 C25.0611258,5.66280703 25.0851261,5.66280703 25.0851261,5.63880665 C25.0851261,5.61480627 25.0851261,5.61480627 25.1091265,5.59080589 C25.1571273,5.59080589 25.2051281,5.5668055 25.2291284,5.5668055 C25.3011296,5.54280512 25.3971311,5.54280512 25.4451319,5.51880474 C25.517133,5.51880474 25.5651338,5.49480436 25.6131345,5.49480436 C25.6371349,5.51880474 25.6611353,5.51880474 25.6611353,5.51880474 L25.6611353,5.51880474 Z" id="XMLID_56_" fill="#FFFFFF" sketch:type="MSShapeGroup"></path>
            <path d="M31.858288,12.2389118 L29.5542513,13.3909301" id="XMLID_47_" fill="#000000" sketch:type="MSShapeGroup"></path>
            <path d="M31.858288,12.2389118 L31.858288,12.2869125 C31.858288,12.3349133 31.858288,12.382914 31.8342876,12.4549152 C31.8342876,12.5269163 31.8102872,12.5989175 31.8102872,12.6709186 C31.8102872,12.7189194 31.7862869,12.7669202 31.7862869,12.7909205 C31.7862869,12.8149209 31.7622865,12.8149209 31.7622865,12.8149209 C31.7382861,12.8149209 31.7382861,12.8149209 31.7142857,12.8389213 C31.4982823,12.9349228 31.2102777,13.0789251 30.9222731,13.2229274 C30.6342685,13.3669297 30.3462639,13.510932 30.1302605,13.6069335 C30.1062601,13.6069335 30.1062601,13.6069335 30.0822597,13.6309339 C30.0822597,13.6549343 30.0582593,13.6549343 30.034259,13.6309339 C29.9862582,13.6069335 29.9622578,13.5829332 29.9142571,13.5589328 C29.8422559,13.5349324 29.7702548,13.4869316 29.722254,13.4389309 C29.6742532,13.4149305 29.6262525,13.3669297 29.5782517,13.3669297 C29.5542513,13.3429293 29.5302509,13.3429293 29.5302509,13.3429293 L29.5302509,13.2949286 C29.5302509,13.2709282 29.5302509,13.198927 29.5542513,13.1509263 C29.5542513,13.0789251 29.5782517,13.006924 29.5782517,12.9349228 C29.5782517,12.8869221 29.6022521,12.8389213 29.6022521,12.8149209 C29.6022521,12.7909205 29.6262525,12.7909205 29.6262525,12.7909205 C29.6502528,12.7909205 29.6502528,12.7909205 29.6742532,12.7669202 C29.8902567,12.6709186 30.1782613,12.5269163 30.4662658,12.382914 C30.7542704,12.2389118 31.042275,12.0949095 31.2582785,11.9989079 C31.2822788,11.9989079 31.2822788,11.9989079 31.3062792,11.9749075 C31.3062792,11.9509072 31.3302796,11.9509072 31.35428,11.9749075 C31.4022807,11.9989079 31.4262811,12.0229083 31.4742819,12.0469087 C31.546283,12.0709091 31.6182842,12.1189098 31.6662849,12.1669106 C31.7142857,12.190911 31.7622865,12.2389118 31.8102872,12.2629121 C31.8342876,12.2389118 31.858288,12.2389118 31.858288,12.2389118 L31.858288,12.2389118 Z" id="XMLID_44_" fill="#FFFFFF" sketch:type="MSShapeGroup"></path>
            <path id="XMLID_8_" fill="#000000" sketch:type="MSShapeGroup" d="M18.6394458,34.4632657 L18.6394458,37.751318"></path>
            <path d="M18.6394458,34.4632657 C18.6394458,34.4632657 18.6634461,34.487266 18.6874465,34.5112664 C18.7114469,34.5352668 18.783448,34.5592672 18.8314488,34.607268 C18.8794496,34.6552687 18.9514507,34.7032695 19.0234519,34.7752706 C19.0474523,34.799271 19.095453,34.8472718 19.1194534,34.8712722 C19.1434538,34.8952725 19.1434538,34.8952725 19.1194534,34.9192729 L19.1194534,34.9672737 L19.1194534,36.0952916 L19.1194534,37.2233096 L19.1194534,37.2713104 C19.1194534,37.2953108 19.1194534,37.3193111 19.095453,37.3193111 C19.0474523,37.3433115 19.0234519,37.3913123 18.9994515,37.4153127 C18.9274503,37.4873138 18.8794496,37.5353146 18.8074484,37.5833153 C18.7594477,37.6313161 18.7114469,37.6553165 18.6634461,37.6793169 C18.6394458,37.7033173 18.6154454,37.7273176 18.6154454,37.7273176 C18.6154454,37.7273176 18.591445,37.7033173 18.5674446,37.6793169 C18.5434442,37.6553165 18.4954435,37.6313161 18.4234423,37.5833153 C18.3754416,37.5353146 18.3034404,37.4873138 18.2314393,37.4153127 C18.2074389,37.3913123 18.1594381,37.3433115 18.1354377,37.3193111 C18.1114373,37.2953108 18.1114373,37.2953108 18.1114373,37.2713104 L18.1114373,37.2233096 L18.1114373,36.0952916 L18.1114373,34.9672737 L18.1114373,34.9192729 C18.1114373,34.8952725 18.087437,34.8712722 18.1114373,34.8712722 C18.1594381,34.8472718 18.1834385,34.799271 18.2074389,34.7752706 C18.27944,34.7032695 18.3274408,34.6552687 18.3994419,34.607268 C18.4474427,34.5592672 18.4954435,34.5352668 18.5434442,34.5112664 L18.6394458,34.4632657 L18.6394458,34.4632657 Z" id="XMLID_7_" fill="#FFFFFF" sketch:type="MSShapeGroup"></path>
        </g>
    </g>
</svg>